<?xml version="1.0" encoding="UTF-8"?>
<svg version="1.1" xmlns="http://www.w3.org/2000/svg" width="230" height="230">
<path d="M0 0 C75.9 0 151.8 0 230 0 C230 75.9 230 151.8 230 230 C154.1 230 78.2 230 0 230 C0 154.1 0 78.2 0 0 Z " fill="#032032" transform="translate(0,0)"/>
<path d="M0 0 C75.9 0 151.8 0 230 0 C230 75.9 230 151.8 230 230 C154.1 230 78.2 230 0 230 C0 154.1 0 78.2 0 0 Z M84.16894531 25.73681641 C80.79086176 27.70419645 77.38512208 29.6219279 73.97998047 31.54199219 C72.02417621 32.64509853 70.07008881 33.75125406 68.11767578 34.86035156 C63.00155647 37.76357606 57.86746114 40.6222409 52.6875 43.41015625 C51.66132568 43.97001221 50.63515137 44.52986816 49.57788086 45.10668945 C47.63075707 46.16782541 45.67624556 47.21556645 43.71313477 48.24682617 C35.00196221 53.0298463 28.08115742 59.2916743 25 69 C24.59383571 71.88098735 24.57901463 74.71609447 24.59594727 77.62231445 C24.58908401 78.45583435 24.58222076 79.28935425 24.57514954 80.14813232 C24.5569413 82.88669168 24.56071134 85.6246747 24.56640625 88.36328125 C24.56184073 90.27988367 24.55653406 92.19648446 24.55052185 94.11308289 C24.54160181 98.12517964 24.54400028 102.13707724 24.55395508 106.14916992 C24.56542789 111.27010634 24.54525342 116.39035145 24.51603794 121.51119709 C24.49761622 125.46882946 24.49798054 129.42629811 24.50367546 133.38396263 C24.50382803 135.27085526 24.49783753 137.15775944 24.48538399 139.04461098 C24.41756897 151.00588154 24.37790196 162.09486053 33.05810547 171.37744141 C37.26608397 174.89343652 42.19672272 177.21780839 47.0625 179.6875 C49.4061384 180.91178627 51.74857119 182.13838296 54.08984375 183.3671875 C55.25499512 183.97530273 56.42014648 184.58341797 57.62060547 185.20996094 C62.51792777 187.80403456 67.32617417 190.54151149 72.125 193.3125 C73.40201782 194.04569458 73.40201782 194.04569458 74.70483398 194.79370117 C77.89927383 196.62933296 81.09072408 198.46978434 84.2734375 200.32568359 C103.2323444 211.40612304 103.2323444 211.40612304 124.6875 211.0625 C130.80965368 209.01211046 136.25167006 205.61145224 141.80859375 202.3828125 C145.69050566 200.14231802 149.65571796 198.14159147 153.6875 196.1875 C162.92184051 191.67319036 171.77784592 186.51531791 180.65917969 181.34960938 C182.68062597 180.18413639 184.71240703 179.04453267 186.7578125 177.921875 C195.28293901 173.17857153 201.61830458 168.62031844 205.17498779 159.29119873 C207.02501257 151.91094526 206.61462638 144.19673443 206.6015625 136.6328125 C206.60935165 134.7477074 206.61802409 132.86260576 206.62753296 130.97750854 C206.64239797 127.03876332 206.6419186 123.10037683 206.63134766 119.16162109 C206.61976545 114.14266597 206.65362773 109.12518877 206.700037 104.10647774 C206.72966514 100.21649763 206.73123458 96.32686726 206.72501755 92.43679428 C206.72603631 90.5878189 206.73636624 88.73882193 206.75664139 86.88995743 C206.86855778 75.25886308 206.42015087 65.31485578 198.32070923 56.08668518 C193.70971293 51.6298677 187.6322193 48.87201012 182 45.9375 C179.85318599 44.79741765 177.70737783 43.65543954 175.5625 42.51171875 C174.47324219 41.93212402 173.38398438 41.3525293 172.26171875 40.75537109 C167.13209331 37.99474183 162.06433797 35.12818889 157 32.25 C156.04923584 31.71125244 155.09847168 31.17250488 154.11889648 30.61743164 C149.83382778 28.18695526 145.55512881 25.74595863 141.28515625 23.2890625 C140.56521484 22.8775293 139.84527344 22.46599609 139.10351562 22.04199219 C137.80633964 21.30030544 136.51174691 20.55406806 135.22070312 19.80175781 C116.29319305 9.00567525 101.69020862 15.43403478 84.16894531 25.73681641 Z " fill="#FBFDF7" transform="translate(0,0)"/>
<path d="M0 0 C5.74956285 2.29587807 5.74956285 2.29587807 7.6484375 4.73046875 C8.41484698 6.79482976 8.84003747 8.77552777 9.25 10.9375 C9.82039226 12.50477046 10.403887 14.06733081 11 15.625 C12.32625905 19.18119462 12.39349035 21.29488822 11.25 24.9375 C9.85248728 27.7827245 8.28436273 30.51280026 6.6875 33.25 C5.223125 35.786875 3.75875 38.32375 2.25 40.9375 C-6.33 40.9375 -14.91 40.9375 -23.75 40.9375 C-25.214375 38.42125 -26.67875 35.905 -28.1875 33.3125 C-28.64825928 32.53181152 -29.10901855 31.75112305 -29.58374023 30.94677734 C-32.16518429 26.4325451 -34.47723429 22.23513134 -33.296875 16.8828125 C-32.7331245 15.5950295 -32.16931679 14.30727154 -31.60546875 13.01953125 C-30.69115344 10.97139141 -30.69115344 10.97139141 -30.30078125 8.82421875 C-29.73722266 6.43022186 -29.22049281 4.92649028 -27.75 2.9375 C-23.9082962 0.76376283 -19.92524235 -0.66274249 -15.75 -2.0625 C-10.98219419 -4.4464029 -4.71812683 -1.56218915 0 0 Z " fill="#E2F3F1" transform="translate(126.75,47.0625)"/>
<path d="M0 0 C1.08539063 -0.07476562 2.17078125 -0.14953125 3.2890625 -0.2265625 C6.55892855 -0.29851554 9.12276448 -0.22482545 12.25 0.75 C15.074946 3.75316957 16.60038703 7.00673094 18.25 10.75 C19.02842693 12.00828758 19.81858301 13.25946474 20.625 14.5 C23.31675303 19.88350606 22.39846305 24.61388642 20.6875 30.25 C18.67237515 35.32555943 16.7255636 37.64382943 11.87524414 39.84570312 C2.63477055 43.44579976 -4.86888694 42.63224223 -13.98828125 38.73046875 C-18.46305188 35.52154554 -19.5739717 31.4348623 -21.17578125 26.3203125 C-22.27224594 19.50283818 -20.63441425 14.86998303 -17.3125 8.9375 C-16.69503906 7.81730469 -16.07757813 6.69710937 -15.44140625 5.54296875 C-11.56067602 -0.86516547 -6.96020678 0.17930275 0 0 Z " fill="#F5F8F4" transform="translate(115.75,140.25)"/>
<path d="M0 0 C1.06283203 -0.02449219 2.12566406 -0.04898438 3.22070312 -0.07421875 C4.23970703 -0.07808594 5.25871094 -0.08195312 6.30859375 -0.0859375 C7.24372803 -0.09415527 8.1788623 -0.10237305 9.14233398 -0.11083984 C11.5625 0.375 11.5625 0.375 13.39086914 2.21630859 C14.5625 4.375 14.5625 4.375 14.5625 7.375 C15.2225 7.375 15.8825 7.375 16.5625 7.375 C17.59794174 9.28381434 18.61540085 11.20239204 19.625 13.125 C20.19347656 14.19234375 20.76195312 15.2596875 21.34765625 16.359375 C22.88306907 20.17075345 22.26046929 21.71659442 20.71459961 25.38964844 C20.38468018 26.0809082 20.05476074 26.77216797 19.71484375 27.484375 C19.39249756 28.16467773 19.07015137 28.84498047 18.73803711 29.54589844 C18.12520874 30.82255371 18.12520874 30.82255371 17.5 32.125 C16.200625 34.8475 14.90125 37.57 13.5625 40.375 C4.3225 40.375 -4.9175 40.375 -14.4375 40.375 C-15.736875 37.9825 -17.03625 35.59 -18.375 33.125 C-18.98782837 32.00496582 -18.98782837 32.00496582 -19.61303711 30.86230469 C-19.9353833 30.26321289 -20.25772949 29.66412109 -20.58984375 29.046875 C-20.91976318 28.4394043 -21.24968262 27.83193359 -21.58959961 27.20605469 C-22.49345049 25.25417401 -23.0757873 23.49596406 -23.4375 21.375 C-22.5 19.125 -22.5 19.125 -21.4375 17.375 C-20.7775 17.375 -20.1175 17.375 -19.4375 17.375 C-19.375625 16.570625 -19.31375 15.76625 -19.25 14.9375 C-16.49491421 2.85750844 -11.63374288 0.0140589 0 0 Z " fill="#068A94" transform="translate(159.4375,71.625)"/>
<path d="M0 0 C7.92 0 15.84 0 24 0 C28.9375 8.9375 28.9375 8.9375 30.49194336 11.75756836 C30.89550049 12.48596924 31.29905762 13.21437012 31.71484375 13.96484375 C32.12855225 14.7137085 32.54226074 15.46257324 32.96850586 16.23413086 C33.8778715 17.96251145 33.8778715 17.96251145 35 19 C35.88337977 24.2500866 33.07501171 27.9841667 30.5 32.3125 C29.015 34.849375 27.53 37.38625 26 40 C17.42 40 8.84 40 0 40 C-1.670625 37.133125 -3.34125 34.26625 -5.0625 31.3125 C-5.85926147 29.97119019 -5.85926147 29.97119019 -6.67211914 28.6027832 C-7.08067139 27.88437256 -7.48922363 27.16596191 -7.91015625 26.42578125 C-8.33433838 25.69786377 -8.75852051 24.96994629 -9.19555664 24.2199707 C-10.46922779 20.70510218 -9.52944007 18.19904626 -8.06030273 14.87182617 C-7.68848877 14.18580322 -7.3166748 13.49978027 -6.93359375 12.79296875 C-6.57064209 12.11516357 -6.20769043 11.4373584 -5.83374023 10.73901367 C-5.37298096 9.89701416 -4.91222168 9.05501465 -4.4375 8.1875 C-2.973125 5.485625 -1.50875 2.78375 0 0 Z " fill="#F7F9F5" transform="translate(60,72)"/>
<path d="M0 0 C8.58 0 17.16 0 26 0 C27.670625 3.031875 29.34125 6.06375 31.0625 9.1875 C31.59367432 10.13391357 32.12484863 11.08032715 32.67211914 12.05541992 C33.28494751 13.19394409 33.28494751 13.19394409 33.91015625 14.35546875 C34.33433838 15.12528076 34.75852051 15.89509277 35.19555664 16.68823242 C36.40756714 20.17124529 35.59466012 22.62153317 34.16796875 25.92871094 C33.84441406 26.52458008 33.52085937 27.12044922 33.1875 27.734375 C32.83429688 28.39050781 32.48109375 29.04664063 32.1171875 29.72265625 C31.74851563 30.39167969 31.37984375 31.06070313 31 31.75 C30.63132813 32.43449219 30.26265625 33.11898437 29.8828125 33.82421875 C27.16301407 38.83698593 27.16301407 38.83698593 26 40 C24.21928754 40.08726223 22.4351686 40.10699041 20.65234375 40.09765625 C19.57275391 40.09443359 18.49316406 40.09121094 17.38085938 40.08789062 C16.24455078 40.07951172 15.10824219 40.07113281 13.9375 40.0625 C12.79732422 40.05798828 11.65714844 40.05347656 10.48242188 40.04882812 C7.65489649 40.03699747 4.8274736 40.0205141 2 40 C0.34703881 36.92043712 -1.29610171 33.83573921 -2.9375 30.75 C-3.64036133 29.44095703 -3.64036133 29.44095703 -4.35742188 28.10546875 C-4.80537109 27.26113281 -5.25332031 26.41679687 -5.71484375 25.546875 C-6.12855225 24.77182617 -6.54226074 23.99677734 -6.96850586 23.19824219 C-9.37693235 18.06558607 -9.37693235 18.06558607 -8.28735352 14.98535156 C-7.90506592 14.2940918 -7.52277832 13.60283203 -7.12890625 12.890625 C-6.76095947 12.21032227 -6.3930127 11.53001953 -6.01391602 10.82910156 C-5.53494873 9.97799805 -5.05598145 9.12689453 -4.5625 8.25 C-2.3040625 4.16625 -2.3040625 4.16625 0 0 Z " fill="#F7F9F5" transform="translate(145,118)"/>
<path d="M0 0 C4.0617589 -0.20364742 8.1222056 -0.32774825 12.1875 -0.4375 C13.91323242 -0.52547852 13.91323242 -0.52547852 15.67382812 -0.61523438 C23.9957506 -0.78408498 23.9957506 -0.78408498 26.83300781 1.43115234 C28.14326473 3.23360422 29.09328333 4.96824778 30 7 C30.46148437 7.7940625 30.92296875 8.588125 31.3984375 9.40625 C31.72070312 10.0971875 32.04296875 10.788125 32.375 11.5 C32.71273437 12.1909375 33.05046875 12.881875 33.3984375 13.59375 C34.79599421 19.18397683 32.92447168 23.71186253 30.1171875 28.4453125 C29.74851563 29.04085937 29.37984375 29.63640625 29 30.25 C26.12917403 34.94110167 26.12917403 34.94110167 24 40 C16.08 40 8.16 40 0 40 C-1.670625 37.133125 -3.34125 34.26625 -5.0625 31.3125 C-5.85926147 29.97119019 -5.85926147 29.97119019 -6.67211914 28.6027832 C-7.08067139 27.88437256 -7.48922363 27.16596191 -7.91015625 26.42578125 C-8.33433838 25.69786377 -8.75852051 24.96994629 -9.19555664 24.2199707 C-10.46922779 20.70510218 -9.52944007 18.19904626 -8.06030273 14.87182617 C-7.68848877 14.18580322 -7.3166748 13.49978027 -6.93359375 12.79296875 C-6.3293457 11.66665039 -6.3293457 11.66665039 -5.71289062 10.51757812 C-5.29201172 9.74865234 -4.87113281 8.97972656 -4.4375 8.1875 C-4.01275391 7.39923828 -3.58800781 6.61097656 -3.15039062 5.79882812 C-2.10603446 3.8626622 -1.0557923 1.92994633 0 0 Z " fill="#098891" transform="translate(61,118)"/>
<path d="M0 0 C5.79379294 2.44010042 8.67524715 7.57715696 11.25 13.0625 C12.35402602 18.82796921 11.17734513 22.81755495 8.1875 27.75 C5.1945622 31.89352474 2.90763627 33.76730574 -2.1875 35 C-7.59215162 35.57433628 -13.10628248 35.95654906 -18.125 33.5625 C-22.94360327 29.53060747 -25.09782211 24.84527005 -27.3125 19.0625 C-27.07768467 13.30952431 -24.27582344 8.22247697 -20.36328125 4.05859375 C-14.03491636 -1.44721637 -8.16472043 -2.45413562 0 0 Z " fill="#F0F4F3" transform="translate(123.1875,97)"/>
<path d="M0 0 C3.35624435 3.1202008 3.62720004 7.40114619 4.15234375 11.77734375 C3.67086226 15.4687018 2.30841836 16.9766363 -0.22265625 19.65234375 C-0.73828125 20.22984375 -1.25390625 20.80734375 -1.78515625 21.40234375 C-4.66720282 23.9084712 -8.30256511 24.1762041 -12.015625 24.12109375 C-16.49716269 23.16926274 -19.5656403 20.27055411 -22.22265625 16.65234375 C-22.81920022 13.23577374 -22.92691266 11.84578231 -22.22265625 8.65234375 C-21.99835938 7.57339844 -21.99835938 7.57339844 -21.76953125 6.47265625 C-20.62786 2.47680686 -19.6857643 0.96423285 -16.16015625 -1.41015625 C-10.94315593 -3.13065636 -4.71906117 -2.86129368 0 0 Z " fill="#09838B" transform="translate(125.22265625,56.34765625)"/>
<path d="M0 0 C4.21124988 -0.24772058 7.8802497 -0.41382076 11.875 1.0625 C15.79222725 4.63408955 16.9039463 8.55919454 17.25 13.75 C17 17 17 17 16 20 C15.34 20 14.68 20 14 20 C13.67 20.99 13.34 21.98 13 23 C8.27077904 25.08965577 4.06175923 25.99584492 -0.93359375 24.37109375 C-3.32290598 23.14518908 -4.49092627 22.24415263 -6 20 C-6.83693062 15.24241452 -6.92205242 10.74602444 -6 6 C-4.08203125 3.56640625 -4.08203125 3.56640625 -2 2 C-1.34 2 -0.68 2 0 2 C0 1.34 0 0.68 0 0 Z " fill="#BEC5BC" transform="translate(111,149)"/>
<path d="M0 0 C1.485 0.99 1.485 0.99 3 2 C2.01 2 1.02 2 0 2 C0 1.34 0 0.68 0 0 Z M0 2 C-0.08121094 3.30195312 -0.16242188 4.60390625 -0.24609375 5.9453125 C-0.31177551 7.67180452 -0.37547307 9.39837282 -0.4375 11.125 C-0.49615234 11.9809375 -0.55480469 12.836875 -0.61523438 13.71875 C-0.74997869 18.65645624 -0.74997869 18.65645624 1.44873047 22.94067383 C4.538104 25.72688454 6.76353376 27.30741627 11 27.4375 C12.33700496 27.33043515 13.67142843 27.18423551 15 27 C15.680625 26.91878906 16.36125 26.83757812 17.0625 26.75390625 C18.71329368 26.5375724 20.35774444 26.27370926 22 26 C22.125 32.75 22.125 32.75 21 35 C17.4597564 35.26275596 13.92201867 35.42160329 10.375 35.5625 C9.37597656 35.63791016 8.37695312 35.71332031 7.34765625 35.79101562 C4.32717016 35.88103011 1.91050355 35.82934153 -1 35 C-3.75406508 32.34418435 -5.33750555 29.41564476 -7 26 C-7.80614155 24.57970549 -8.61751789 23.16234912 -9.4375 21.75 C-11.23524494 18.45060929 -10.93856051 16.60407238 -10 13 C-9.78601563 12.05640625 -9.57203125 11.1128125 -9.3515625 10.140625 C-8.99191406 8.70976563 -8.99191406 8.70976563 -8.625 7.25 C-8.39039062 6.28578125 -8.15578125 5.3215625 -7.9140625 4.328125 C-7.61242187 3.55984375 -7.31078125 2.7915625 -7 2 C-3.86650268 0.95550089 -3.01031744 1.06576355 0 2 Z " fill="#F1F7F4" transform="translate(104,52)"/>
<path d="M0 0 C1.32 0 2.64 0 4 0 C4 1.98 4 3.96 4 6 C4.99 6 5.98 6 7 6 C7.3403125 7.7015625 7.3403125 7.7015625 7.6875 9.4375 C9.18737355 15.22125895 11.05789313 21.158715 16.328125 24.45703125 C18.5298083 25.43671108 20.70040639 26.28356888 23 27 C23 27.99 23 28.98 23 30 C21.9275 29.979375 20.855 29.95875 19.75 29.9375 C15.75174474 29.95230613 15.75174474 29.95230613 12 31 C11.34 31.99 10.68 32.98 10 34 C9.01 34 8.02 34 7 34 C7 30.7 7 27.4 7 24 C6.34 23.67 5.68 23.34 5 23 C3.96210419 21.35666496 2.96432076 19.68756133 2 18 C1.34 17.01 0.68 16.02 0 15 C0 14.01 0 13.02 0 12 C-6.13418935 10.97620122 -12.22844151 10.68392327 -18.4375 10.4375 C-19.45521484 10.39431641 -20.47292969 10.35113281 -21.52148438 10.30664062 C-24.01421028 10.20131418 -26.50702338 10.09918328 -29 10 C-29 9.34 -29 8.68 -29 8 C-20.42 8 -11.84 8 -3 8 C-2.34 6.02 -1.68 4.04 -1 2 C-0.67 1.34 -0.34 0.68 0 0 Z " fill="#061A28" transform="translate(89,105)"/>
<path d="M0 0 C3.49289951 2.58170833 4.77272316 4.30554299 6.125 8.4375 C5.95278418 13.34565097 4.46551473 14.61507864 1 18 C-2.10048928 19.55024464 -4.57894218 19.28992015 -8 19 C-10.75329021 17.20437595 -12.52627461 15.94745078 -14 13 C-14.3751455 8.02932218 -14.15878799 4.94848498 -11 1 C-7.43954779 -1.79749817 -4.21263041 -1.10858695 0 0 Z " fill="#061E2F" transform="translate(120,105)"/>
<path d="M0 0 C2.81640625 0.51171875 2.81640625 0.51171875 6 2 C7.33306737 4.73597654 8.16893197 6.92587159 8.9375 9.8125 C9.15728516 10.52470703 9.37707031 11.23691406 9.60351562 11.97070312 C11.40105098 18.17880445 10.90303774 21.45987712 7.93359375 26.98828125 C7.10985435 28.43444216 6.27616144 29.87494132 5.4375 31.3125 C3.973125 33.849375 2.50875 36.38625 1 39 C-7.58 39 -16.16 39 -25 39 C-25 38.67 -25 38.34 -25 38 C-17.74 38 -10.48 38 -3 38 C-2.67 35.03 -2.34 32.06 -2 29 C-1.319375 28.195625 -0.63875 27.39125 0.0625 26.5625 C3.82658122 21.58419903 2.14264121 14.90793983 1.4375 9 C1.33308594 8.278125 1.22867188 7.55625 1.12109375 6.8125 C1 5 1 5 2 3 C1.34 2.67 0.68 2.34 0 2 C0 1.34 0 0.68 0 0 Z " fill="#F7F9F2" transform="translate(128,49)"/>
<path d="M0 0 C4.0617589 -0.20364742 8.1222056 -0.32774825 12.1875 -0.4375 C13.91323242 -0.52547852 13.91323242 -0.52547852 15.67382812 -0.61523438 C24.00368426 -0.78424595 24.00368426 -0.78424595 26.88793945 1.48608398 C29.27884373 4.74695343 30.62985589 7.92841477 31 12 C29.0625 11.4375 29.0625 11.4375 27 10 C26.25 6.375 26.25 6.375 26 3 C21.57983845 1.52661282 17.25734887 1.57208851 12.625 1.4375 C11.67882812 1.37498047 10.73265625 1.31246094 9.7578125 1.24804688 C6.96146674 1.18324392 4.69370728 1.23513062 2 2 C-2.21625359 6.08999715 -3.56416935 11.47757444 -5 17 C-5.66 17.66 -6.32 18.32 -7 19 C-7.6425235 21.06874034 -7.6425235 21.06874034 -8 23 C-7.01 23.33 -6.02 23.66 -5 24 C-2.75 25.75 -2.75 25.75 -1 28 C-1.25 30.75 -1.25 30.75 -2 33 C-1.34 33 -0.68 33 0 33 C0 34.32 0 35.64 0 37 C7.59 37.33 15.18 37.66 23 38 C23.33 36.35 23.66 34.7 24 33 C24.95394836 30.97762948 25.94535351 28.9717304 27 27 C27.99 27.33 28.98 27.66 30 28 C28.02 31.96 26.04 35.92 24 40 C16.08 40 8.16 40 0 40 C-1.670625 37.133125 -3.34125 34.26625 -5.0625 31.3125 C-5.85926147 29.97119019 -5.85926147 29.97119019 -6.67211914 28.6027832 C-7.08067139 27.88437256 -7.48922363 27.16596191 -7.91015625 26.42578125 C-8.33433838 25.69786377 -8.75852051 24.96994629 -9.19555664 24.2199707 C-10.46922779 20.70510218 -9.52944007 18.19904626 -8.06030273 14.87182617 C-7.68848877 14.18580322 -7.3166748 13.49978027 -6.93359375 12.79296875 C-6.3293457 11.66665039 -6.3293457 11.66665039 -5.71289062 10.51757812 C-5.29201172 9.74865234 -4.87113281 8.97972656 -4.4375 8.1875 C-4.01275391 7.39923828 -3.58800781 6.61097656 -3.15039062 5.79882812 C-2.10603446 3.8626622 -1.0557923 1.92994633 0 0 Z " fill="#1C858F" transform="translate(61,118)"/>
<path d="M0 0 C3.35624435 3.1202008 3.62720004 7.40114619 4.15234375 11.77734375 C3.67086226 15.4687018 2.30841836 16.9766363 -0.22265625 19.65234375 C-0.73828125 20.22984375 -1.25390625 20.80734375 -1.78515625 21.40234375 C-4.66720282 23.9084712 -8.30256511 24.1762041 -12.015625 24.12109375 C-16.49716269 23.16926274 -19.5656403 20.27055411 -22.22265625 16.65234375 C-22.81920022 13.23577374 -22.92691266 11.84578231 -22.22265625 8.65234375 C-21.99835938 7.57339844 -21.99835938 7.57339844 -21.76953125 6.47265625 C-20.62786 2.47680686 -19.6857643 0.96423285 -16.16015625 -1.41015625 C-10.94315593 -3.13065636 -4.71906117 -2.86129368 0 0 Z M-18.22265625 2.65234375 C-18.22265625 8.26234375 -18.22265625 13.87234375 -18.22265625 19.65234375 C-15.21951877 21.15391249 -12.43198103 20.74515579 -9.09765625 20.71484375 C-7.81632812 20.70582031 -6.535 20.69679688 -5.21484375 20.6875 C-4.22742188 20.67589844 -3.24 20.66429688 -2.22265625 20.65234375 C-2.55265625 18.67234375 -2.88265625 16.69234375 -3.22265625 14.65234375 C-1.57265625 14.65234375 0.07734375 14.65234375 1.77734375 14.65234375 C1.51520976 8.75432894 1.08794297 4.07637979 -3.22265625 -0.34765625 C-8.85126652 -1.3218388 -13.11313124 0.5009648 -18.22265625 2.65234375 Z " fill="#238D96" transform="translate(125.22265625,56.34765625)"/>
<path d="M0 0 C0.41636719 0.48855469 0.83273438 0.97710937 1.26171875 1.48046875 C4.35609066 4.18543656 8.11166017 3.32864055 12.03515625 3.23828125 C15.27734805 2.97770984 18.02398733 2.3226723 21 1 C21.125 7.75 21.125 7.75 20 10 C16.39610336 10.11601004 12.79268533 10.18718408 9.1875 10.25 C8.16333984 10.28351563 7.13917969 10.31703125 6.08398438 10.3515625 C5.10107422 10.36445312 4.11816406 10.37734375 3.10546875 10.390625 C2.19949951 10.41157227 1.29353027 10.43251953 0.36010742 10.45410156 C-2 10 -2 10 -3.8190918 8.16308594 C-5 6 -5 6 -5 3 C-2.55555556 0 -2.55555556 0 0 0 Z " fill="#F5FAF7" transform="translate(105,77)"/>
<path d="M0 0 C1.06734375 -0.02900391 2.1346875 -0.05800781 3.234375 -0.08789062 C4.25789063 -0.09626953 5.28140625 -0.10464844 6.3359375 -0.11328125 C7.27743652 -0.12786377 8.21893555 -0.14244629 9.18896484 -0.1574707 C11.625 0.3125 11.625 0.3125 13.45556641 2.15161133 C14.625 4.3125 14.625 4.3125 14.625 7.3125 C15.285 7.3125 15.945 7.3125 16.625 7.3125 C17.66044174 9.22131434 18.67790085 11.13989204 19.6875 13.0625 C20.25597656 14.12984375 20.82445312 15.1971875 21.41015625 16.296875 C22.94556907 20.10825345 22.32296929 21.65409442 20.77709961 25.32714844 C20.44718018 26.0184082 20.11726074 26.70966797 19.77734375 27.421875 C19.41962891 28.17597656 19.06191406 28.93007812 18.69335938 29.70703125 C18.32017578 30.48433594 17.94699219 31.26164062 17.5625 32.0625 C17.18544922 32.85527344 16.80839844 33.64804688 16.41992188 34.46484375 C15.49154161 36.41561746 14.55870456 38.36426906 13.625 40.3125 C12.965 40.3125 12.305 40.3125 11.625 40.3125 C12.39140316 35.02528833 14.80668002 30.98120115 17.34765625 26.34765625 C18.73863499 23.04248658 18.98286559 20.86091378 18.625 17.3125 C17.64471384 15.96460653 16.64528865 14.63037285 15.625 13.3125 C15.4375 10.5625 15.4375 10.5625 15.625 8.3125 C14.965 8.3125 14.305 8.3125 13.625 8.3125 C12.965 6.6625 12.305 5.0125 11.625 3.3125 C3.705 3.3125 -4.215 3.3125 -12.375 3.3125 C-12.375 3.9725 -12.375 4.6325 -12.375 5.3125 C-13.035 5.3125 -13.695 5.3125 -14.375 5.3125 C-11.11071861 -1.43368154 -7.10993393 0.06393825 0 0 Z " fill="#1A7480" transform="translate(159.375,71.6875)"/>
<path d="M0 0 C4.25418911 1.20535358 7.90271692 2.91401724 11.75 5.0625 C11.75 5.7225 11.75 6.3825 11.75 7.0625 C12.74 7.3925 13.73 7.7225 14.75 8.0625 C14.75 9.0525 14.75 10.0425 14.75 11.0625 C10.95813511 12.32645496 10.39463604 11.5358635 6.75 10.0625 C4.1597046 9.52728123 1.56545227 9.06299573 -1.04296875 8.625 C-3.25 8.0625 -3.25 8.0625 -5.25 6.0625 C-5.91 5.7325 -6.57 5.4025 -7.25 5.0625 C-4.21250593 0.08100973 -4.21250593 0.08100973 0 0 Z " fill="#FAFAF6" transform="translate(116.25,43.9375)"/>
<path d="M0 0 C9.24 0 18.48 0 28 0 C28.66 1.98 29.32 3.96 30 6 C30.98095748 7.01868662 31.97702078 8.02351983 33 9 C33 9.99 33 10.98 33 12 C33.99 12.33 34.98 12.66 36 13 C35.67 16.3 35.34 19.6 35 23 C34.67 23 34.34 23 34 23 C33.81824219 22.41992188 33.63648438 21.83984375 33.44921875 21.2421875 C31.95773278 16.60710803 30.34001689 12.29003096 28 8 C27.59740967 7.12835205 27.19481934 6.2567041 26.7800293 5.35864258 C25.20247511 2.72975386 25.20247511 2.72975386 22.27270508 2.43237305 C20.66238403 2.47164917 20.66238403 2.47164917 19.01953125 2.51171875 C17.85615234 2.52783203 16.69277344 2.54394531 15.49414062 2.56054688 C13.67172852 2.62338867 13.67172852 2.62338867 11.8125 2.6875 C10.58595703 2.71005859 9.35941406 2.73261719 8.09570312 2.75585938 C5.06258441 2.81486947 2.03189778 2.89715408 -1 3 C-0.67 2.01 -0.34 1.02 0 0 Z " fill="#012E40" transform="translate(61,116)"/>
<path d="M0 0 C0.99 0 1.98 0 3 0 C3 1.32 3 2.64 3 4 C2.34 4 1.68 4 1 4 C1 4.66 1 5.32 1 6 C1.66 6 2.32 6 3 6 C2.67 7.98 2.34 9.96 2 12 C2.66 12.33 3.32 12.66 4 13 C2.68 16.3 1.36 19.6 0 23 C-1.46132217 20.07735566 -2.34099246 18.07536854 -3 15 C-4.98 15.66 -6.96 16.32 -9 17 C-8.60167969 16.27554688 -8.20335938 15.55109375 -7.79296875 14.8046875 C-5.10994868 9.90866547 -2.44255712 5.02081186 0 0 Z " fill="#04243C" transform="translate(94,139)"/>
<path d="M0 0 C0.33 0 0.66 0 1 0 C1.185625 1.2065625 1.185625 1.2065625 1.375 2.4375 C1.58125 3.283125 1.7875 4.12875 2 5 C2.66 5.33 3.32 5.66 4 6 C5.88186002 9.0318856 6 10.24517355 6 14 C6.66 14 7.32 14 8 14 C8 14.99 8 15.98 8 17 C8.66 17 9.32 17 10 17 C10 17.66 10 18.32 10 19 C10.75023437 18.75443359 10.75023437 18.75443359 11.515625 18.50390625 C14.9263468 17.8121089 18.28735757 17.89495335 21.75 17.9375 C22.44738281 17.94201172 23.14476562 17.94652344 23.86328125 17.95117188 C25.57555803 17.9628998 27.28779033 17.98083347 29 18 C29.33 18.99 29.66 19.98 30 21 C22.74 21 15.48 21 8 21 C6.700625 18.6075 5.40125 16.215 4.0625 13.75 C3.65394775 13.00331055 3.24539551 12.25662109 2.82446289 11.48730469 C2.5021167 10.88821289 2.17977051 10.28912109 1.84765625 9.671875 C1.51773682 9.0644043 1.18781738 8.45693359 0.84790039 7.83105469 C-0.05518957 5.88081723 -0.63994023 4.11941172 -1 2 C-0.67 1.34 -0.34 0.68 0 0 Z " fill="#17818C" transform="translate(137,91)"/>
<path d="M0 0 C0.99 0.33 1.98 0.66 3 1 C3.680625 1.165 4.36125 1.33 5.0625 1.5 C7 2 7 2 9 3 C7.35 3.66 5.7 4.32 4 5 C4.33 5.99 4.66 6.98 5 8 C4.67 8.33 4.34 8.66 4 9 C4 9.33 4 9.66 4 10 C0.7 10 -2.6 10 -6 10 C-6 8.68 -6 7.36 -6 6 C-7.32 5.34 -8.64 4.68 -10 4 C-10 3.34 -10 2.68 -10 2 C-9.04287109 1.90912109 -9.04287109 1.90912109 -8.06640625 1.81640625 C-6.82697266 1.69072266 -6.82697266 1.69072266 -5.5625 1.5625 C-4.73878906 1.48128906 -3.91507812 1.40007812 -3.06640625 1.31640625 C-1.01337975 1.21069185 -1.01337975 1.21069185 0 0 Z " fill="#03212F" transform="translate(123,131)"/>
<path d="M0 0 C0.66 0 1.32 0 2 0 C1.566875 1.051875 1.566875 1.051875 1.125 2.125 C-0.02133588 5.05452503 -1.02625654 8.00921653 -2 11 C-2.66 11 -3.32 11 -4 11 C-5.06523977 15.43849905 -5.41686797 17.28729025 -3.0625 21.3125 C-2.381875 22.199375 -1.70125 23.08625 -1 24 C-1 24.66 -1 25.32 -1 26 C-3.99332739 25.0022242 -4.94766315 24.2477975 -7 22 C-7.99 22.66 -8.98 23.32 -10 24 C-10 20.88742431 -9.82638376 18.89234315 -9 16 C-8.34 16 -7.68 16 -7 16 C-7.04125 14.948125 -7.0825 13.89625 -7.125 12.8125 C-7.0066441 9.20264518 -6.77486902 7.10602079 -5 4 C-2.9375 2.8125 -2.9375 2.8125 -1 2 C-0.67 1.34 -0.34 0.68 0 0 Z " fill="#022B3E" transform="translate(142,78)"/>
<path d="M0 0 C2.21661096 4.43322192 3.23057805 8.04257185 3 13 C1.25 15.875 1.25 15.875 -1 18 C-1.515625 18.5775 -2.03125 19.155 -2.5625 19.75 C-5.58814513 22.38099576 -9.12805928 22.21139445 -12.96484375 22.42578125 C-15 22 -15 22 -19 18 C-13.72 18.33 -8.44 18.66 -3 19 C-3.33 17.02 -3.66 15.04 -4 13 C-2.68 12.67 -1.36 12.34 0 12 C0 8.04 0 4.08 0 0 Z " fill="#1F8B8F" transform="translate(126,58)"/>
<path d="M0 0 C0.98200403 2.9460121 0.93421394 4.67978924 0.625 7.875 C0.59563787 10.48822944 0.77933293 11.67915279 2.2734375 13.8515625 C5.34045952 16.77980524 7.82692039 18.36395871 12.125 18.4375 C15.1470061 18.09630576 18.05191472 17.73702132 21 17 C20.67 17.66 20.34 18.32 20 19 C16.79226388 20.06924537 14.37015182 20.16684956 11 20.1875 C9.948125 20.20167969 8.89625 20.21585938 7.8125 20.23046875 C5 20 5 20 2 18 C2 17.34 2 16.68 2 16 C1.34 16 0.68 16 0 16 C-0.33 16.99 -0.66 17.98 -1 19 C-1.99 19.33 -2.98 19.66 -4 20 C-4.99 18.02 -5.98 16.04 -7 14 C-4.525 14.99 -4.525 14.99 -2 16 C-2.02320312 15.18015625 -2.04640625 14.3603125 -2.0703125 13.515625 C-2.08835937 12.43796875 -2.10640625 11.3603125 -2.125 10.25 C-2.14820312 9.18265625 -2.17140625 8.1153125 -2.1953125 7.015625 C-2.00487687 4.07529894 -1.52670104 2.47638122 0 0 Z " fill="#D6F2F0" transform="translate(103,61)"/>
<path d="M0 0 C0.99 0.495 0.99 0.495 2 1 C3.48732153 7.63136987 3.18376815 14.48789495 3.1875 21.25 C3.19974609 22.43335938 3.21199219 23.61671875 3.22460938 24.8359375 C3.22654297 25.96773437 3.22847656 27.09953125 3.23046875 28.265625 C3.23457764 29.29461914 3.23868652 30.32361328 3.24291992 31.38378906 C3 34 3 34 1 37 C-0.55977064 33.88045872 -0.12104126 30.57040616 -0.09765625 27.1484375 C-0.0962413 26.37440582 -0.09482635 25.60037415 -0.09336853 24.80288696 C-0.08776403 22.32688558 -0.07521083 19.85097412 -0.0625 17.375 C-0.05748558 15.69791797 -0.05292257 14.02083453 -0.04882812 12.34375 C-0.03779315 8.22913194 -0.02052554 4.11458122 0 0 Z " fill="#041C27" transform="translate(25,121)"/>
<path d="M0 0 C7.59 0 15.18 0 23 0 C23.99 2.31 24.98 4.62 26 7 C25.01 7.33 24.02 7.66 23 8 C22.67 7.01 22.34 6.02 22 5 C21.01 5 20.02 5 19 5 C19 4.01 19 3.02 19 2 C18.01 2.33 17.02 2.66 16 3 C13.25392224 2.91232913 10.54908492 2.77043265 7.8125 2.5625 C7.06291016 2.51029297 6.31332031 2.45808594 5.54101562 2.40429688 C3.69362918 2.27486216 1.84675629 2.13813482 0 2 C0 1.34 0 0.68 0 0 Z " fill="#EBFCFA" transform="translate(148,118)"/>
<path d="M0 0 C0.82177734 0.19916016 0.82177734 0.19916016 1.66015625 0.40234375 C9.41777614 2.13046395 17.08044291 2.59874244 25 3 C25 3.33 25 3.66 25 4 C16.75 4 8.5 4 0 4 C-0.66 5.98 -1.32 7.96 -2 10 C-3.625 12.375 -3.625 12.375 -5 14 C-5.36666667 6.66666667 -5.36666667 6.66666667 -3.625 3.5 C-2 2 -2 2 0 2 C0 1.34 0 0.68 0 0 Z " fill="#172D34" transform="translate(145,114)"/>
<path d="M0 0 C0 0.66 0 1.32 0 2 C0.5775 1.79375 1.155 1.5875 1.75 1.375 C4.51967567 0.91338739 5.64561267 1.57055055 8 3 C8 3.99 8 4.98 8 6 C5.70858714 6.05384521 3.41681812 6.09272087 1.125 6.125 C-0.78925781 6.15980469 -0.78925781 6.15980469 -2.7421875 6.1953125 C-6 6 -6 6 -8 4 C-7.67 3.01 -7.34 2.02 -7 1 C-4 0 -4 0 0 0 Z " fill="#088996" transform="translate(115,71)"/>
<path d="M0 0 C4.68565225 1.21479873 4.68565225 1.21479873 7 3 C8.36343576 6.26522383 8.70638263 9.49260701 9 13 C9.12375 14.258125 9.2475 15.51625 9.375 16.8125 C8.91690364 20.70631906 7.83177516 22.33004057 5 25 C4.01 25 3.02 25 2 25 C3.07401108 22.08482708 3.77810176 20.22189824 6 18 C6.11166227 13.26365877 5.31890314 8.14961615 3 4 C0.98682781 2.19651922 0.98682781 2.19651922 -1 1 C-0.67 0.67 -0.34 0.34 0 0 Z " fill="#DEF9FB" transform="translate(122,53)"/>
<path d="M0 0 C0.66 0.66 1.32 1.32 2 2 C1.64964824 6.20422118 0.03580511 10.96419489 -3 14 C-5.14558827 14.08775605 -7.29404421 14.10695219 -9.44140625 14.09765625 C-10.74658203 14.09443359 -12.05175781 14.09121094 -13.39648438 14.08789062 C-14.7851569 14.07953401 -16.17382877 14.07106905 -17.5625 14.0625 C-18.95507656 14.05748666 -20.34765481 14.05292347 -21.74023438 14.04882812 C-25.1601987 14.03699434 -28.58007844 14.0205088 -32 14 C-32 13.67 -32 13.34 -32 13 C-23.09 13 -14.18 13 -5 13 C-4.67 11.35 -4.34 9.7 -4 8 C-3.02734375 5.76171875 -3.02734375 5.76171875 -1.9375 3.6875 C-1.57527344 2.99011719 -1.21304688 2.29273437 -0.83984375 1.57421875 C-0.56269531 1.05472656 -0.28554687 0.53523438 0 0 Z " fill="#023A4B" transform="translate(178,99)"/>
<path d="M0 0 C0.99 0.33 1.98 0.66 3 1 C0.69 5.62 -1.62 10.24 -4 15 C-12.58 15 -21.16 15 -30 15 C-30 14.67 -30 14.34 -30 14 C-21.75 14 -13.5 14 -5 14 C-5.33 12.68 -5.66 11.36 -6 10 C-5.34 9.34 -4.68 8.68 -4 8 C-2.98034573 5.67518826 -1.97940398 3.34205301 -1 1 C-0.67 0.67 -0.34 0.34 0 0 Z " fill="#C6D2D0" transform="translate(133,73)"/>
<path d="M0 0 C-1 1 -1 1 -3.06640625 1.09765625 C-3.89011719 1.08605469 -4.71382812 1.07445312 -5.5625 1.0625 C-6.38878906 1.05347656 -7.21507813 1.04445312 -8.06640625 1.03515625 C-8.70449219 1.02355469 -9.34257813 1.01195312 -10 1 C-8.74458443 3.51083114 -7.49936512 3.87125446 -5 5 C-5.66 6.32 -6.32 7.64 -7 9 C-10.63 8.34 -14.26 7.68 -18 7 C-17.34 6.67 -16.68 6.34 -16 6 C-16 5.01 -16 4.02 -16 3 C-16.66 2.67 -17.32 2.34 -18 2 C-15.69 2.33 -13.38 2.66 -11 3 C-11 2.01 -11 1.02 -11 0 C-9.54263913 -0.19491452 -8.08405407 -0.38069358 -6.625 -0.5625 C-5.81289062 -0.66691406 -5.00078125 -0.77132812 -4.1640625 -0.87890625 C-2 -1 -2 -1 0 0 Z " fill="#122D3A" transform="translate(123,132)"/>
<path d="M0 0 C1.33333333 0.66666667 2.66666667 1.33333333 4 2 C4 2.66 4 3.32 4 4 C4.928125 4.4640625 4.928125 4.4640625 5.875 4.9375 C7.25 5.625 8.625 6.3125 10 7 C10 7.66 10 8.32 10 9 C10.99 9 11.98 9 13 9 C13 9.66 13 10.32 13 11 C13.99 10.67 14.98 10.34 16 10 C16 10.99 16 11.98 16 13 C11.08558588 11.56347895 6.99761642 9.45840385 2.625 6.875 C1.98433594 6.50246094 1.34367187 6.12992188 0.68359375 5.74609375 C-0.88048477 4.83565998 -2.44065534 3.91851809 -4 3 C-2.68 2.01 -1.36 1.02 0 0 Z " fill="#162B33" transform="translate(81,193)"/>
<path d="M0 0 C3 1 3 1 4.25 2.625 C5.30061312 5.95194155 4.64998375 8.62008449 4 12 C3.01 11.67 2.02 11.34 1 11 C0.67 11.99 0.34 12.98 0 14 C-0.99 13.67 -1.98 13.34 -3 13 C-2.34 10.69 -1.68 8.38 -1 6 C-0.01 6 0.98 6 2 6 C2 5.01 2 4.02 2 3 C1.01 2.67 0.02 2.34 -1 2 C-0.67 1.34 -0.34 0.68 0 0 Z " fill="#102734" transform="translate(121,107)"/>
<path d="M0 0 C0.99 0.33 1.98 0.66 3 1 C1.02 4.96 -0.96 8.92 -3 13 C-10.92 13 -18.84 13 -27 13 C-27.33 12.34 -27.66 11.68 -28 11 C-20.08 11 -12.16 11 -4 11 C-3.67 9.35 -3.34 7.7 -3 6 C-2.04605164 3.97762948 -1.05464649 1.9717304 0 0 Z " fill="#1A7982" transform="translate(88,145)"/>
<path d="M0 0 C1.41973403 2.65017018 2.35828704 5.06645502 3 8 C3.185625 8.7425 3.37125 9.485 3.5625 10.25 C3.7790625 11.11625 3.7790625 11.11625 4 12 C2.35 13.32 0.7 14.64 -1 16 C-3.23629743 11.65895204 -3.03087613 8.72484891 -2 4 C-0.9375 1.5625 -0.9375 1.5625 0 0 Z " fill="#EEF2EC" transform="translate(97,152)"/>
<path d="M0 0 C1.485 0.99 1.485 0.99 3 2 C2.01 2 1.02 2 0 2 C0 1.34 0 0.68 0 0 Z M0 2 C0 4.31 0 6.62 0 9 C-0.66 9 -1.32 9 -2 9 C-2 9.66 -2 10.32 -2 11 C-2.99 11 -3.98 11 -5 11 C-5.33 11.99 -5.66 12.98 -6 14 C-6.33 14 -6.66 14 -7 14 C-7.36923077 9.44615385 -7.36923077 9.44615385 -5.5 7.1875 C-4.7575 6.5996875 -4.7575 6.5996875 -4 6 C-4.66 4.68 -5.32 3.36 -6 2 C-3.50907189 0.75453595 -2.58919267 1.2232422 0 2 Z " fill="#F7FAF5" transform="translate(104,52)"/>
<path d="M0 0 C0.66 0.99 1.32 1.98 2 3 C1.34 3 0.68 3 0 3 C0 5.97 0 8.94 0 12 C-0.66 12 -1.32 12 -2 12 C-2.66 14.31 -3.32 16.62 -4 19 C-4.33 18.01 -4.66 17.02 -5 16 C-5.99 15.67 -6.98 15.34 -8 15 C-5.36 10.05 -2.72 5.1 0 0 Z " fill="#122533" transform="translate(179,142)"/>
<path d="M0 0 C1.65 0.33 3.3 0.66 5 1 C5 1.66 5 2.32 5 3 C5.66 3 6.32 3 7 3 C7 2.34 7 1.68 7 1 C7.66 1 8.32 1 9 1 C9 1.66 9 2.32 9 3 C9.66 3 10.32 3 11 3 C10.67 4.32 10.34 5.64 10 7 C9.071875 6.690625 8.14375 6.38125 7.1875 6.0625 C2.22128454 4.6216844 -2.86205306 4.35305964 -8 4 C-8 3.67 -8 3.34 -8 3 C-5.36 3 -2.72 3 0 3 C0 2.01 0 1.02 0 0 Z M11 2 C13 3 13 3 13 3 Z " fill="#E7EFEF" transform="translate(119,10)"/>
<path d="M0 0 C2.32472205 2.85306797 3.7508258 5.54074837 5 9 C3.68 9 2.36 9 1 9 C0.01 10.485 0.01 10.485 -1 12 C-5 7.25 -5 7.25 -5 5 C-4.360625 4.731875 -3.72125 4.46375 -3.0625 4.1875 C-0.66868314 3.11332248 -0.66868314 3.11332248 0 0 Z " fill="#092336" transform="translate(137,139)"/>
<path d="M0 0 C2.5625 2.25 2.5625 2.25 5 5 C4.64326444 7.94241191 3.42121701 10.45078341 2.15234375 13.109375 C1.79462891 13.86347656 1.43691406 14.61757812 1.06835938 15.39453125 C0.50858398 16.56048828 0.50858398 16.56048828 -0.0625 17.75 C-0.62807617 18.93916016 -0.62807617 18.93916016 -1.20507812 20.15234375 C-2.13345839 22.10311746 -3.06629544 24.05176906 -4 26 C-4.66 26 -5.32 26 -6 26 C-5.23359684 20.71278833 -2.81831998 16.66870115 -0.27734375 12.03515625 C1.56455035 7.65854549 1.48907928 4.46723784 0 0 Z " fill="#1D818D" transform="translate(177,86)"/>
<path d="M0 0 C0 0.66 0 1.32 0 2 C-1.78953185 2.83790789 -3.58169695 3.67019396 -5.375 4.5 C-6.87160156 5.19609375 -6.87160156 5.19609375 -8.3984375 5.90625 C-11 7 -11 7 -13 7 C-12.06479312 3.85430413 -11.29872512 2.2489376 -8.75 0.125 C-5.39193874 -1.24875233 -3.46655157 -0.88679226 0 0 Z " fill="#0C252D" transform="translate(113,43)"/>
<path d="M0 0 C3.54243452 1.36591169 6.92627929 2.90931484 10.3125 4.625 C11.63701172 5.29402344 11.63701172 5.29402344 12.98828125 5.9765625 C13.65214844 6.31429687 14.31601562 6.65203125 15 7 C11.55549263 9.29633824 9.06187717 9.54016485 5 10 C5.66 8.68 6.32 7.36 7 6 C3.535 4.02 3.535 4.02 0 2 C0 1.34 0 0.68 0 0 Z " fill="#E7F0EF" transform="translate(35,173)"/>
<path d="M0 0 C0 0.99 0 1.98 0 3 C-4.455 4.485 -4.455 4.485 -9 6 C-9 6.66 -9 7.32 -9 8 C-10.98 8.66 -12.96 9.32 -15 10 C-16.02104551 9.02149805 -17.0206121 8.02019573 -18 7 C-18 6.67 -18 6.34 -18 6 C-17.34773438 5.81824219 -16.69546875 5.63648438 -16.0234375 5.44921875 C-11.04236829 4.01661035 -4.9215158 0 0 0 Z " fill="#E3EAEC" transform="translate(138,205)"/>
<path d="M0 0 C2.00993705 2.00993705 2.89940919 3.59211232 4.125 6.125 C4.47820312 6.84945312 4.83140625 7.57390625 5.1953125 8.3203125 C5.46085937 8.87460938 5.72640625 9.42890625 6 10 C4.140625 10.58984375 4.140625 10.58984375 2 11 C-0.25 9.5625 -0.25 9.5625 -2 8 C-1.125 1.125 -1.125 1.125 0 0 Z " fill="#0F272C" transform="translate(96,117)"/>
<path d="M0 0 C2.0625 0.4375 2.0625 0.4375 4 1 C3.67 3.31 3.34 5.62 3 8 C1.68 8.33 0.36 8.66 -1 9 C-1 8.34 -1 7.68 -1 7 C-1.66 7 -2.32 7 -3 7 C-1.125 1.125 -1.125 1.125 0 0 Z " fill="#132A31" transform="translate(137,72)"/>
<path d="M0 0 C2.31 0.66 4.62 1.32 7 2 C5.68 5.63 4.36 9.26 3 13 C1.51393928 10.02787856 0.69961451 8.09829285 0 5 C-0.33 4.01 -0.66 3.02 -1 2 C-0.67 1.34 -0.34 0.68 0 0 Z " fill="#062635" transform="translate(91,149)"/>
<path d="M0 0 C2.3046875 0.5546875 2.3046875 0.5546875 5.3046875 2.5546875 C5.4921875 5.1796875 5.4921875 5.1796875 5.3046875 7.5546875 C3.92905896 6.26503574 2.59702357 4.92779457 1.3046875 3.5546875 C1.3046875 2.8946875 1.3046875 2.2346875 1.3046875 1.5546875 C-3.03715452 1.73933116 -3.03715452 1.73933116 -6.6953125 3.5546875 C-8.69489614 3.59549533 -10.69576504 3.59723106 -12.6953125 3.5546875 C-8.62247582 -0.92543285 -5.61444369 -0.69967231 0 0 Z " fill="#1F7B7D" transform="translate(120.6953125,54.4453125)"/>
<path d="M0 0 C-2.55991624 2.01136276 -5.04590299 3.62845496 -8 5 C-7.67 5.66 -7.34 6.32 -7 7 C-7.66 7 -8.32 7 -9 7 C-9.33 7.66 -9.66 8.32 -10 9 C-10.66 7.35 -11.32 5.7 -12 4 C-7.62086703 -0.52510407 -6.25424506 -1.22365664 0 0 Z " fill="#142633" transform="translate(119,105)"/>
<path d="M0 0 C0.33 0 0.66 0 1 0 C1.33 2.31 1.66 4.62 2 7 C0.68 7.33 -0.64 7.66 -2 8 C-1.34 8.33 -0.68 8.66 0 9 C0 9.66 0 10.32 0 11 C-1.64333504 12.03789581 -3.31243867 13.03567924 -5 14 C-5.66 14.66 -6.32 15.32 -7 16 C-6.40165275 11.85701333 -4.99335715 8.81805623 -2.9375 5.1875 C-2.11572266 3.72376953 -2.11572266 3.72376953 -1.27734375 2.23046875 C-0.85582031 1.49441406 -0.43429688 0.75835937 0 0 Z " fill="#EAF0F2" transform="translate(57,78)"/>
<path d="M0 0 C0.99 1.32 1.98 2.64 3 4 C3.721875 3.34 4.44375 2.68 5.1875 2 C8.21597933 -0.1535853 9.39703406 -0.41176754 13 0 C9.45960866 2.9156164 5.8373228 5.50127818 2 8 C0.4375 6.25 0.4375 6.25 -1 4 C-0.6875 1.75 -0.6875 1.75 0 0 Z " fill="#EAF0EC" transform="translate(30,49)"/>
<path d="M0 0 C0.66 0.66 1.32 1.32 2 2 C1.71857705 6.78419016 -0.7870902 10.8520807 -3 15 C-3.99 15 -4.98 15 -6 15 C-6 13.35 -6 11.7 -6 10 C-5.34 10 -4.68 10 -4 10 C-2.68 7.69 -1.36 5.38 0 3 C-0.66 2.67 -1.32 2.34 -2 2 C-1.34 2 -0.68 2 0 2 C0 1.34 0 0.68 0 0 Z " fill="#E3EAEA" transform="translate(179,135)"/>
<path d="M0 0 C-0.70554068 3.66881155 -2.27735506 6.70450534 -4 10 C-5.32 9.34 -6.64 8.68 -8 8 C-6.6875 4.5625 -6.6875 4.5625 -5 1 C-2 0 -2 0 0 0 Z " fill="#EEF1EF" transform="translate(93,97)"/>
<path d="M0 0 C5.27749285 0.53851968 9.25645564 1.77343836 14 4 C14 4.66 14 5.32 14 6 C12.02 6.33 10.04 6.66 8 7 C7.67 6.01 7.34 5.02 7 4 C4.49552484 2.78130071 4.49552484 2.78130071 2 2 C2 2.66 2 3.32 2 4 C1.34 4 0.68 4 0 4 C0 2.68 0 1.36 0 0 Z " fill="#ECF6F0" transform="translate(113,44)"/>
<path d="M0 0 C1.88391785 3.26545761 2.49287967 6.28111761 3 10 C2.01 10.33 1.02 10.66 0 11 C-0.66 10.01 -1.32 9.02 -2 8 C-2.99 7.34 -3.98 6.68 -5 6 C-3.74821404 3.49642808 -2.00018842 1.93566621 0 0 Z " fill="#DCE4E0" transform="translate(136,61)"/>
<path d="M0 0 C2 3 2 3 2 6 C4.31 6.66 6.62 7.32 9 8 C8.67 9.65 8.34 11.3 8 13 C5.03 12.505 5.03 12.505 2 12 C2.226875 11.401875 2.45375 10.80375 2.6875 10.1875 C2.790625 9.465625 2.89375 8.74375 3 8 C1.64594139 6.39588754 1.64594139 6.39588754 0 5 C-0.33 4.01 -0.66 3.02 -1 2 C-0.67 1.34 -0.34 0.68 0 0 Z " fill="#152C33" transform="translate(97,171)"/>
<path d="M0 0 C8.25 0.33 16.5 0.66 25 1 C25 1.33 25 1.66 25 2 C12.4027618 3.07537399 12.4027618 3.07537399 7.4375 3 C4.6663037 3 2.60060274 3.13313242 0 4 C0 2.68 0 1.36 0 0 Z " fill="#02181F" transform="translate(102,87)"/>
<path d="M0 0 C5.28 0.33 10.56 0.66 16 1 C15.67 1.66 15.34 2.32 15 3 C11.37296974 4.20901009 7.75982637 4.78660475 4 4 C2.68 2.68 1.36 1.36 0 0 Z " fill="#378B8B" transform="translate(107,76)"/>
<path d="M0 0 C2 1 2 1 3 3 C2.38125 3.28875 1.7625 3.5775 1.125 3.875 C-1.13325765 4.93720042 -1.13325765 4.93720042 -3 7 C-6.125 6.625 -6.125 6.625 -9 6 C-6.45368965 3.02930459 -3.57769851 1.5224249 0 0 Z " fill="#EDF4EF" transform="translate(158,193)"/>
<path d="M0 0 C1.67542976 0.28604898 3.34385343 0.61781233 5 1 C5 1.99 5 2.98 5 4 C4.34 4.66 3.68 5.32 3 6 C3.3185177 8.10820797 3.3185177 8.10820797 4 10 C2.68 9.67 1.36 9.34 0 9 C-0.87890625 2.84765625 -0.87890625 2.84765625 -1 1 C-0.67 0.67 -0.34 0.34 0 0 Z " fill="#F6F9F7" transform="translate(102,102)"/>
<path d="M0 0 C1.6097168 0.00966797 1.6097168 0.00966797 3.25195312 0.01953125 C4.9312793 0.04466797 4.9312793 0.04466797 6.64453125 0.0703125 C7.77568359 0.07933594 8.90683594 0.08835937 10.07226562 0.09765625 C12.86739953 0.12124388 15.6621097 0.1541595 18.45703125 0.1953125 C18.45703125 0.5253125 18.45703125 0.8553125 18.45703125 1.1953125 C17.4354895 1.20933105 17.4354895 1.20933105 16.39331055 1.22363281 C13.30964478 1.27729381 10.22750331 1.36094801 7.14453125 1.4453125 C6.07267578 1.45949219 5.00082031 1.47367187 3.89648438 1.48828125 C2.86845703 1.52050781 1.84042969 1.55273438 0.78125 1.5859375 C-0.16661377 1.60688477 -1.11447754 1.62783203 -2.09106445 1.64941406 C-5.22492386 2.34714478 -5.82339643 3.58460342 -7.54296875 6.1953125 C-8.20296875 6.1953125 -8.86296875 6.1953125 -9.54296875 6.1953125 C-9.23046875 4.3203125 -9.23046875 4.3203125 -8.54296875 2.1953125 C-5.14399202 -0.07067198 -3.97977702 -0.04211404 0 0 Z " fill="#003142" transform="translate(152.54296875,70.8046875)"/>
<path d="M0 0 C2 2 2 2 2.25 4.8125 C2.00289113 7.96313815 1.33686973 10.15915182 0 13 C-1.546875 11.7890625 -1.546875 11.7890625 -3 10 C-2.890625 7.7734375 -2.890625 7.7734375 -2.25 5.375 C-2.04890625 4.57835937 -1.8478125 3.78171875 -1.640625 2.9609375 C-1 1 -1 1 0 0 Z " fill="#E1E7E5" transform="translate(136,156)"/>
<path d="M0 0 C0.66 0.33 1.32 0.66 2 1 C1.34 2.98 0.68 4.96 0 7 C0.99 7.33 1.98 7.66 3 8 C3.73046875 10.06640625 3.73046875 10.06640625 4.1875 12.5625 C4.34605469 13.38878906 4.50460938 14.21507812 4.66796875 15.06640625 C4.77753906 15.70449219 4.88710938 16.34257812 5 17 C2.04619851 13.53692239 -0.31817969 10.24880919 -2 6 C-1.6097561 1.6097561 -1.6097561 1.6097561 0 0 Z " fill="#23828D" transform="translate(53,134)"/>
<path d="M0 0 C0 1.98 0 3.96 0 6 C-0.99 6 -1.98 6 -3 6 C-4.70532323 7.94009522 -4.70532323 7.94009522 -6 10 C-6.66 9.67 -7.32 9.34 -8 9 C-6.68994234 5.06982701 -4.75047804 0 0 0 Z " fill="#0A1F2A" transform="translate(36,55)"/>
<path d="M0 0 C2 1 2 1 3 3 C3.66 3.33 4.32 3.66 5 4 C4.67 4.66 4.34 5.32 4 6 C2.68 6 1.36 6 0 6 C-2.26877535 8.41880929 -2.26877535 8.41880929 -4 11 C-4.66 10.67 -5.32 10.34 -6 10 C-4.02 6.7 -2.04 3.4 0 0 Z " fill="#023444" transform="translate(91,145)"/>
<path d="M0 0 C0.66 0 1.32 0 2 0 C1.7834375 0.87011719 1.7834375 0.87011719 1.5625 1.7578125 C0.49110572 6.26659675 -0.23945936 10.33054247 0 15 C-0.99 14.67 -1.98 14.34 -3 14 C-2.773125 13.4225 -2.54625 12.845 -2.3125 12.25 C-1.73494807 9.87827523 -1.73494807 9.87827523 -3.4375 7.75 C-3.953125 7.1725 -4.46875 6.595 -5 6 C-3.625 4.5 -3.625 4.5 -2 3 C-1.34 3 -0.68 3 0 3 C0 2.01 0 1.02 0 0 Z " fill="#061624" transform="translate(137,129)"/>
<path d="M0 0 C-1.25805377 4.50802601 -2.90407165 7.4912812 -6 11 C-7.03321725 7.71249056 -7.20141923 6.42202124 -5.6875 3.25 C-3.82855276 0.77140368 -3.09802169 0 0 0 Z " fill="#132833" transform="translate(56,80)"/>
<path d="M0 0 C3.91211733 1.15585285 6.8745041 2.35534962 10 5 C9.01 5 8.02 5 7 5 C6.67 5.66 6.34 6.32 6 7 C4.68 7 3.36 7 2 7 C2 6.01 2 5.02 2 4 C1.01 3.34 0.02 2.68 -1 2 C-0.67 1.34 -0.34 0.68 0 0 Z " fill="#0D212B" transform="translate(158,34)"/>
<path d="M0 0 C3.01327566 1.50663783 3.61056618 4.03166411 5 7 C4.01 8.485 4.01 8.485 3 10 C1.68 9.67 0.36 9.34 -1 9 C-1 8.01 -1 7.02 -1 6 C-1.33 5.34 -1.66 4.68 -2 4 C-1.34 3.67 -0.68 3.34 0 3 C0 2.01 0 1.02 0 0 Z " fill="#F9FBFB" transform="translate(105,120)"/>
<path d="M0 0 C0.66 0.33 1.32 0.66 2 1 C2.39801392 4.4826218 2.12373826 5.80799236 0.1875 8.8125 C-0.534375 9.534375 -1.25625 10.25625 -2 11 C-2.99 11 -3.98 11 -5 11 C-3.92598892 8.08482708 -3.22189824 6.22189824 -1 4 C-0.3574765 1.93125966 -0.3574765 1.93125966 0 0 Z " fill="#C2ECEA" transform="translate(129,67)"/>
<path d="M0 0 C1.98 0 3.96 0 6 0 C6.66 1.65 7.32 3.3 8 5 C7.01 5.495 7.01 5.495 6 6 C3.5249829 4.88568235 1.32116581 3.41849022 -1 2 C-0.67 1.34 -0.34 0.68 0 0 Z " fill="#112935" transform="translate(51,179)"/>
<path d="M0 0 C-0.66 1.98 -1.32 3.96 -2 6 C-3.9375 5.25 -3.9375 5.25 -6 4 C-6.75 1.875 -6.75 1.875 -7 0 C-4.3333581 -1.33332095 -2.83319697 -0.67102033 0 0 Z " fill="#081C28" transform="translate(35,162)"/>
<path d="M0 0 C0.99 0.33 1.98 0.66 3 1 C3 1.66 3 2.32 3 3 C1.02 3 -0.96 3 -3 3 C-3 3.66 -3 4.32 -3 5 C-4.98 5 -6.96 5 -9 5 C-9.33 4.01 -9.66 3.02 -10 2 C-9.04287109 1.90912109 -9.04287109 1.90912109 -8.06640625 1.81640625 C-6.82697266 1.69072266 -6.82697266 1.69072266 -5.5625 1.5625 C-4.73878906 1.48128906 -3.91507812 1.40007812 -3.06640625 1.31640625 C-1.01337975 1.21069185 -1.01337975 1.21069185 0 0 Z " fill="#021925" transform="translate(123,131)"/>
<path d="M0 0 C0.66 0 1.32 0 2 0 C1.39009109 3.55780196 0.4216319 6.6828589 -1 10 C-2.32 9.67 -3.64 9.34 -5 9 C-3.50079488 5.88626628 -1.91847864 2.87771795 0 0 Z " fill="#092028" transform="translate(132,122)"/>
<path d="M0 0 C0.33 1.98 0.66 3.96 1 6 C-3 4.66666667 -7 3.33333333 -11 2 C-11 1.67 -11 1.34 -11 1 C-7.26562152 0.12132271 -3.83225427 -0.08912219 0 0 Z " fill="#293C49" transform="translate(125,42)"/>
<path d="M0 0 C4.45551924 1.21514161 6.95743587 2.52278385 10 6 C10.66 6.66 11.32 7.32 12 8 C11.01 8.495 11.01 8.495 10 9 C7.3984375 7.78515625 7.3984375 7.78515625 4.375 6.0625 C3.37210938 5.49660156 2.36921875 4.93070313 1.3359375 4.34765625 C0.56507813 3.90292969 -0.20578125 3.45820313 -1 3 C-0.67 2.01 -0.34 1.02 0 0 Z " fill="#E2EAEC" transform="translate(138,19)"/>
<path d="M0 0 C-2.68841859 2.25245881 -4.64641875 3.88213958 -8 5 C-8 4.34 -8 3.68 -8 3 C-8.66 3 -9.32 3 -10 3 C-9.67 2.01 -9.34 1.02 -9 0 C-5.93109813 -1.53445094 -3.29905734 -0.54984289 0 0 Z " fill="#112730" transform="translate(167,188)"/>
<path d="M0 0 C1.32 1.65 2.64 3.3 4 5 C3.360625 5.20625 2.72125 5.4125 2.0625 5.625 C-0.34925077 6.89538209 -0.34925077 6.89538209 -0.75 10.125 C-0.8325 11.07375 -0.915 12.0225 -1 13 C-1.66 12.34 -2.32 11.68 -3 11 C-2.01 7.37 -1.02 3.74 0 0 Z " fill="#DCEAE8" transform="translate(97,54)"/>
<path d="M0 0 C2.31 0 4.62 0 7 0 C7.33 0.66 7.66 1.32 8 2 C3.05 4.475 3.05 4.475 -2 7 C-1.34 4.69 -0.68 2.38 0 0 Z " fill="#E2ECEC" transform="translate(46,42)"/>
<path d="M0 0 C2.875 0.4375 2.875 0.4375 6 2 C7.15929788 4.93581453 7.62705566 7.87498361 8 11 C6.62437146 9.71034824 5.29233607 8.37310707 4 7 C4 6.34 4 5.68 4 5 C3.34 4.67 2.68 4.34 2 4 C0.875 1.9375 0.875 1.9375 0 0 Z " fill="#D6DDDE" transform="translate(128,49)"/>
<path d="M0 0 C3.3 1.65 6.6 3.3 10 5 C8.02 5.99 8.02 5.99 6 7 C3 6 3 6 1 4 C0.67 2.68 0.34 1.36 0 0 Z " fill="#E5F1F0" transform="translate(72,193)"/>
<path d="M0 0 C0 0.99 0 1.98 0 3 C-3.3 3.66 -6.6 4.32 -10 5 C-10.33 4.34 -10.66 3.68 -11 3 C-4.5 0 -4.5 0 0 0 Z " fill="#172A31" transform="translate(129,179)"/>
<path d="M0 0 C0.66 0.33 1.32 0.66 2 1 C1.67 2.65 1.34 4.3 1 6 C-2.375 6.125 -2.375 6.125 -6 6 C-6.66 5.34 -7.32 4.68 -8 4 C-6.71349294 3.30289269 -5.42059335 2.61757124 -4.125 1.9375 C-3.40570313 1.55464844 -2.68640625 1.17179688 -1.9453125 0.77734375 C-1.30335938 0.52082031 -0.66140625 0.26429688 0 0 Z " fill="#DFE8E7" transform="translate(187,177)"/>
<path d="M0 0 C3 4 3 4 2.875 7.5 C2.04534356 10.81862574 1.28177919 12.51980523 -1 15 C-1.33 13.35 -1.66 11.7 -2 10 C-1.01 10 -0.02 10 1 10 C0.67 6.7 0.34 3.4 0 0 Z " fill="#177681" transform="translate(92,130)"/>
<path d="M0 0 C2.3203125 0.22265625 2.3203125 0.22265625 5 1 C6.6171875 2.99609375 6.6171875 2.99609375 7.875 5.4375 C8.30554688 6.24058594 8.73609375 7.04367188 9.1796875 7.87109375 C9.45039062 8.57363281 9.72109375 9.27617188 10 10 C9.67 10.66 9.34 11.32 9 12 C8.01 11.34 7.02 10.68 6 10 C5.3125 6.375 5.3125 6.375 5 3 C2.525 2.01 2.525 2.01 0 1 C0 0.67 0 0.34 0 0 Z " fill="#18717C" transform="translate(82,118)"/>
<path d="M0 0 C0.66 0.33 1.32 0.66 2 1 C0.625 2.5 0.625 2.5 -1 4 C-1.66 4 -2.32 4 -3 4 C-3 5.98 -3 7.96 -3 10 C-3.99 10 -4.98 10 -6 10 C-5.8125 6.6875 -5.8125 6.6875 -5 3 C-2.5625 1 -2.5625 1 0 0 Z " fill="#34898D" transform="translate(110,55)"/>
<path d="M0 0 C1.9375 0.6875 1.9375 0.6875 2.9375 2.6875 C4.96213255 3.33963292 4.96213255 3.33963292 6.9375 3.6875 C6.9375 4.3475 6.9375 5.0075 6.9375 5.6875 C2.9882432 5.13644091 -0.41170174 4.29814629 -4.0625 2.6875 C-4.0625 2.0275 -4.0625 1.3675 -4.0625 0.6875 C-2.0625 -0.3125 -2.0625 -0.3125 0 0 Z " fill="#182D38" transform="translate(102.0625,205.3125)"/>
<path d="M0 0 C3 3.75 3 3.75 3 6 C2.34 6 1.68 6 1 6 C0.67 6.66 0.34 7.32 0 8 C0 7.34 0 6.68 0 6 C-0.99 5.67 -1.98 5.34 -3 5 C-2.625 3.0625 -2.625 3.0625 -2 1 C-1.34 0.67 -0.68 0.34 0 0 Z " fill="#112531" transform="translate(142,148)"/>
<path d="M0 0 C0.7734375 0.61875 0.7734375 0.61875 1.5625 1.25 C-2.1875 4.25 -2.1875 4.25 -4.4375 4.25 C-5.0975 4.91 -5.7575 5.57 -6.4375 6.25 C-7.4275 5.26 -8.4175 4.27 -9.4375 3.25 C-3.0375 -0.93461538 -3.0375 -0.93461538 0 0 Z " fill="#182D37" transform="translate(96.4375,20.75)"/>
<path d="M0 0 C1.32 0.66 2.64 1.32 4 2 C4 2.99 4 3.98 4 5 C2.35 5.66 0.7 6.32 -1 7 C-1.66 5.35 -2.32 3.7 -3 2 C-2.01 1.34 -1.02 0.68 0 0 Z " fill="#EBEEEB" transform="translate(89,17)"/>
<path d="M0 0 C1.32 0 2.64 0 4 0 C4.99 2.31 5.98 4.62 7 7 C6.01 7.33 5.02 7.66 4 8 C3.67 7.01 3.34 6.02 3 5 C2.01 5 1.02 5 0 5 C0 4.34 0 3.68 0 3 C0.99 3 1.98 3 3 3 C3 2.34 3 1.68 3 1 C2.01 0.67 1.02 0.34 0 0 Z " fill="#E1E8EA" transform="translate(167,118)"/>
<path d="M0 0 C6.93 0 13.86 0 21 0 C21 0.33 21 0.66 21 1 C20.44014404 1.02505615 19.88028809 1.0501123 19.3034668 1.07592773 C16.76458695 1.19203745 14.22606447 1.3146958 11.6875 1.4375 C10.36588867 1.49647461 10.36588867 1.49647461 9.01757812 1.55664062 C7.74624023 1.61948242 7.74624023 1.61948242 6.44921875 1.68359375 C5.66893311 1.72025146 4.88864746 1.75690918 4.0847168 1.79467773 C1.80670899 1.94125263 1.80670899 1.94125263 -1 3 C-0.67 2.01 -0.34 1.02 0 0 Z " fill="#1D7787" transform="translate(61,118)"/>
<path d="M0 0 C1.60080151 4.00200378 0.29279692 7.04556236 -1 11 C-1.66 11 -2.32 11 -3 11 C-3.33 11.99 -3.66 12.98 -4 14 C-4.66 14 -5.32 14 -6 14 C-6 13.34 -6 12.68 -6 12 C-5.34 12 -4.68 12 -4 12 C-3.896875 11.13375 -3.79375 10.2675 -3.6875 9.375 C-2.96601586 5.83316877 -1.72876739 3.15687958 0 0 Z " fill="#197687" transform="translate(144,77)"/>
<path d="M0 0 C0.99 0.66 1.98 1.32 3 2 C0.03 3.65 -2.94 5.3 -6 7 C-5 3 -5 3 -2.4375 1.25 C-1.2309375 0.63125 -1.2309375 0.63125 0 0 Z " fill="#11242B" transform="translate(143,198)"/>
<path d="M0 0 C0.66 0 1.32 0 2 0 C0.515 6.435 0.515 6.435 -1 13 C-1.33 13 -1.66 13 -2 13 C-3.11507674 8.31667771 -2.85976188 5.44276449 -1 1 C-0.67 0.67 -0.34 0.34 0 0 Z " fill="#EBF3F1" transform="translate(25,65)"/>
<path d="M0 0 C0.53625 0.391875 1.0725 0.78375 1.625 1.1875 C1.625 2.1775 1.625 3.1675 1.625 4.1875 C-0.375 3.1875 -0.375 3.1875 -2.375 1.1875 C-2.375 1.8475 -2.375 2.5075 -2.375 3.1875 C-4.355 3.5175 -6.335 3.8475 -8.375 4.1875 C-8.375 3.5275 -8.375 2.8675 -8.375 2.1875 C-2.95961538 -1.0125 -2.95961538 -1.0125 0 0 Z " fill="#0F2830" transform="translate(58.375,42.8125)"/>
<path d="M0 0 C0.33 0.66 0.66 1.32 1 2 C1.66 2.33 2.32 2.66 3 3 C1.35 6.3 -0.3 9.6 -2 13 C-3.18414294 9.44757118 -2.69535532 8.30169438 -1.5625 4.8125 C-1.27503906 3.91144531 -0.98757812 3.01039062 -0.69140625 2.08203125 C-0.46324219 1.39496094 -0.23507813 0.70789063 0 0 Z " fill="#013345" transform="translate(57,118)"/>
<path d="M0 0 C0.66 0 1.32 0 2 0 C0.63016497 3.16115776 0.0109362 3.9927092 -3 6 C-6.1875 6.125 -6.1875 6.125 -9 6 C-8.67 5.34 -8.34 4.68 -8 4 C-5.66666667 3.33333333 -3.33333333 2.66666667 -1 2 C-0.67 1.34 -0.34 0.68 0 0 Z " fill="#0A1822" transform="translate(122,118)"/>
<path d="M0 0 C2.97 0.495 2.97 0.495 6 1 C5.25 5.75 5.25 5.75 3 8 C2.01 5.36 1.02 2.72 0 0 Z " fill="#122633" transform="translate(92,87)"/>
<path d="M0 0 C2.475 0.99 2.475 0.99 5 2 C5 1.34 5 0.68 5 0 C6.32 0.66 7.64 1.32 9 2 C8.34 2 7.68 2 7 2 C6.67 2.99 6.34 3.98 6 5 C5.01 5.33 4.02 5.66 3 6 C2.01 4.02 1.02 2.04 0 0 Z " fill="#E4EDEB" transform="translate(96,75)"/>
<path d="M0 0 C1.21236328 0.01353516 1.21236328 0.01353516 2.44921875 0.02734375 C3.37154297 0.04474609 3.37154297 0.04474609 4.3125 0.0625 C0.83097024 2.38351984 -1.54919011 2.76153201 -5.6875 3.0625 C-6.3475 2.4025 -7.0075 1.7425 -7.6875 1.0625 C-4.80538698 0.10179566 -2.98899956 -0.04331883 0 0 Z " fill="#E0E9EA" transform="translate(118.6875,179.9375)"/>
<path d="M0 0 C5.75 -0.125 5.75 -0.125 8 1 C8 2.32 8 3.64 8 5 C4.62496331 3.8141763 2.35277269 2.72426311 0 0 Z " fill="#1B2D37" transform="translate(34,171)"/>
<path d="M0 0 C-1.47692308 5.66153846 -1.47692308 5.66153846 -4.125 7.375 C-5.053125 7.684375 -5.053125 7.684375 -6 8 C-5.62403791 5.21788056 -5.32681541 3.4120716 -3.5625 1.1875 C-2 0 -2 0 0 0 Z " fill="#023443" transform="translate(54,131)"/>
<path d="M0 0 C2 2 2 2 2 5 C1.01 6.485 1.01 6.485 0 8 C0 7.34 0 6.68 0 6 C-0.99 6.33 -1.98 6.66 -3 7 C-3.33 6.01 -3.66 5.02 -4 4 C-3.34 4 -2.68 4 -2 4 C-1.34 2.68 -0.68 1.36 0 0 Z " fill="#0B2A38" transform="translate(96,105)"/>
<path d="M0 0 C0.66 0.33 1.32 0.66 2 1 C1.34 2.65 0.68 4.3 0 6 C-0.66 5.67 -1.32 5.34 -2 5 C-3.67654729 5.27942455 -5.34608154 5.60828247 -7 6 C-7.33 5.01 -7.66 4.02 -8 3 C-6.8553125 3.0309375 -6.8553125 3.0309375 -5.6875 3.0625 C-2.89814214 3.12942841 -2.89814214 3.12942841 0 2 C0 1.34 0 0.68 0 0 Z " fill="#122533" transform="translate(98,80)"/>
<path d="M0 0 C0 0.99 0 1.98 0 3 C-6.96428571 5.27678571 -6.96428571 5.27678571 -11 4 C-9.5437455 3.32880451 -8.08492133 2.66318193 -6.625 2 C-5.81289062 1.62875 -5.00078125 1.2575 -4.1640625 0.875 C-2 0 -2 0 0 0 Z " fill="#DAE5E4" transform="translate(138,205)"/>
<path d="M0 0 C0.33 0 0.66 0 1 0 C1.33 2.97 1.66 5.94 2 9 C1.01 9.66 0.02 10.32 -1 11 C-1.02688151 9.35425434 -1.04634123 7.70838587 -1.0625 6.0625 C-1.07410156 5.14597656 -1.08570312 4.22945313 -1.09765625 3.28515625 C-1 1 -1 1 0 0 Z " fill="#041823" transform="translate(26,72)"/>
<path d="M0 0 C0.66 0.33 1.32 0.66 2 1 C2 2.32 2 3.64 2 5 C0.02 5 -1.96 5 -4 5 C-3.6875 3.0625 -3.6875 3.0625 -3 1 C-2.01 0.67 -1.02 0.34 0 0 Z " fill="#DBE4DE" transform="translate(102,49)"/>
<path d="M0 0 C2.32472205 2.85306797 3.7508258 5.54074837 5 9 C3.0625 8.625 3.0625 8.625 1 8 C-0.35439668 5.29120665 -0.06501451 2.99066732 0 0 Z " fill="#023243" transform="translate(56,149)"/>
<path d="M0 0 C0.78375 0.04125 1.5675 0.0825 2.375 0.125 C0.395 1.115 0.395 1.115 -1.625 2.125 C-1.295 2.785 -0.965 3.445 -0.625 4.125 C-4.375 7.125 -4.375 7.125 -6.625 7.125 C-4.07142857 0.19387755 -4.07142857 0.19387755 0 0 Z " fill="#D9E4E3" transform="translate(106.625,140.875)"/>
<path d="M0 0 C0.66 0 1.32 0 2 0 C0.33333333 3.33333333 -1.33333333 6.66666667 -3 10 C-3.99 9.01 -4.98 8.02 -6 7 C-5.04882866 5.8274869 -4.08882991 4.66212985 -3.125 3.5 C-2.59132813 2.8503125 -2.05765625 2.200625 -1.5078125 1.53125 C-0.76144531 0.77328125 -0.76144531 0.77328125 0 0 Z " fill="#D9E2E3" transform="translate(125,117)"/>
<path d="M0 0 C0.99 0.66 1.98 1.32 3 2 C1.95125002 4.62187494 1.35068687 5.79371361 -1.125 7.25 C-1.74375 7.4975 -2.3625 7.745 -3 8 C-1.125 2.25 -1.125 2.25 0 0 Z " fill="#E3ECED" transform="translate(100,104)"/>
<path d="M0 0 C1.67110042 2.96178773 2.32682752 5.37071192 2.625 8.75 C2.69976562 9.54921875 2.77453125 10.3484375 2.8515625 11.171875 C2.90054688 11.77515625 2.94953125 12.3784375 3 13 C0.95204577 11.0373772 0.05023362 9.5722693 -0.19921875 6.73046875 C-0.18858877 4.48045617 -0.12958525 2.24614438 0 0 Z " fill="#4898A0" transform="translate(126,58)"/>
<path d="M0 0 C0.99 0.33 1.98 0.66 3 1 C1.1875 4 1.1875 4 -1 7 C-1.99 7 -2.98 7 -4 7 C-2.92598892 4.08482708 -2.22189824 2.22189824 0 0 Z " fill="#E7ECEC" transform="translate(29,57)"/>
<path d="M0 0 C1.32 0 2.64 0 4 0 C4.625 2.875 4.625 2.875 5 6 C4.34 6.66 3.68 7.32 3 8 C2.01 5.36 1.02 2.72 0 0 Z " fill="#0D1E25" transform="translate(132,49)"/>
<path d="M0 0 C0.66 1.32 1.32 2.64 2 4 C-0.875 4.625 -0.875 4.625 -4 5 C-4.66 4.34 -5.32 3.68 -6 3 C-4.02 2.01 -2.04 1.02 0 0 Z " fill="#E0EAE9" transform="translate(169,187)"/>
<path d="M0 0 C0.99 0.495 0.99 0.495 2 1 C2.4140625 3.06640625 2.4140625 3.06640625 2.625 5.5625 C2.69976562 6.38878906 2.77453125 7.21507813 2.8515625 8.06640625 C2.92503906 9.02353516 2.92503906 9.02353516 3 10 C2.01 9.67 1.02 9.34 0 9 C0 6.03 0 3.06 0 0 Z " fill="#071C27" transform="translate(48,88)"/>
<path d="M0 0 C2.51083114 1.25541557 2.87125446 2.50063488 4 5 C1.625 5.1875 1.625 5.1875 -1 5 C-1.66 4.01 -2.32 3.02 -3 2 C-2.01 1.34 -1.02 0.68 0 0 Z " fill="#182E38" transform="translate(85,25)"/>
<path d="M0 0 C0.66 0 1.32 0 2 0 C1.34 2.97 0.68 5.94 0 9 C-2 5 -2 5 -1.6875 2.8125 C-1 1 -1 1 0 0 Z " fill="#173236" transform="translate(94,153)"/>
<path d="M0 0 C0.33 1.32 0.66 2.64 1 4 C0.34 3.34 -0.32 2.68 -1 2 C-0.67 1.34 -0.34 0.68 0 0 Z M-3 1 C-2.34 2.32 -1.68 3.64 -1 5 C-3.97 4.505 -3.97 4.505 -7 4 C-7 3.34 -7 2.68 -7 2 C-5.68 1.67 -4.36 1.34 -3 1 Z " fill="#021726" transform="translate(99,83)"/>
<path d="M0 0 C0.33 0.99 0.66 1.98 1 3 C1.66 3 2.32 3 3 3 C4.06775224 4.96466413 5.06553465 6.96855359 6 9 C5.67 9.66 5.34 10.32 5 11 C4.01 10.34 3.02 9.68 2 9 C1.8125 6.375 1.8125 6.375 2 4 C1.34 4 0.68 4 0 4 C0 2.68 0 1.36 0 0 Z " fill="#1A7785" transform="translate(173,76)"/>
<path d="M0 0 C2 3 2 3 1.625 6.1875 C1.41875 7.115625 1.2125 8.04375 1 9 C0.01 9 -0.98 9 -2 9 C-1.51421457 5.87709365 -1.0013988 3.00419641 0 0 Z " fill="#21313B" transform="translate(27,64)"/>
<path d="M0 0 C1.65 0 3.3 0 5 0 C4.1875 1.9375 4.1875 1.9375 3 4 C2.01 4.33 1.02 4.66 0 5 C0 3.35 0 1.7 0 0 Z " fill="#05898F" transform="translate(107,59)"/>
<path d="M0 0 C-0.33 0.99 -0.66 1.98 -1 3 C-3.375 3.625 -3.375 3.625 -6 4 C-6.66 3.34 -7.32 2.68 -8 2 C-4.91190305 0.23537317 -3.76687864 0 0 0 Z " fill="#EFF5EF" transform="translate(109,211)"/>
<path d="M0 0 C0.33 1.65 0.66 3.3 1 5 C-1.91517292 3.92598892 -3.77810176 3.22189824 -6 1 C-4 0 -4 0 0 0 Z " fill="#172A34" transform="translate(70,187)"/>
<path d="M0 0 C0.66 0.99 1.32 1.98 2 3 C1.34 3 0.68 3 0 3 C-0.33 5.31 -0.66 7.62 -1 10 C-2.1875 8.375 -2.1875 8.375 -3 6 C-1.625 2.75 -1.625 2.75 0 0 Z " fill="#1D2E39" transform="translate(179,142)"/>
<path d="M0 0 C2.32472205 2.85306797 3.7508258 5.54074837 5 9 C4.01 9 3.02 9 2 9 C0.14223235 5.86501708 -0.20140476 3.62528568 0 0 Z " fill="#1B2B37" transform="translate(137,139)"/>
<path d="M0 0 C0.33 0.66 0.66 1.32 1 2 C0.06553465 4.03144641 -0.93224776 6.03533587 -2 8 C-2.66 8 -3.32 8 -4 8 C-3.50168276 4.31245243 -2.89932357 2.39509338 0 0 Z " fill="#108B97" transform="translate(57,133)"/>
<path d="M0 0 C0.66 0 1.32 0 2 0 C1.67 2.31 1.34 4.62 1 7 C0.34 7 -0.32 7 -1 7 C-1.04254356 5.00045254 -1.04080783 2.99958364 -1 1 C-0.67 0.67 -0.34 0.34 0 0 Z " fill="#031821" transform="translate(94,113)"/>
<path d="M0 0 C1.65 0 3.3 0 5 0 C5 0.66 5 1.32 5 2 C4.01 2.66 3.02 3.32 2 4 C1.34 4.99 0.68 5.98 0 7 C0 4.69 0 2.38 0 0 Z " fill="#E1F7F9" transform="translate(104,54)"/>
<path d="M0 0 C0.66 0.33 1.32 0.66 2 1 C1.01 2.32 0.02 3.64 -1 5 C-2.32 4.34 -3.64 3.68 -5 3 C-2.625 1.4375 -2.625 1.4375 0 0 Z " fill="#E0EBED" transform="translate(154,195)"/>
<path d="M0 0 C2.46278801 2.46278801 2.99771255 4.70676982 4 8 C3.34 8.66 2.68 9.32 2 10 C0.39644899 6.49223216 -0.22036864 3.85645121 0 0 Z " fill="#E1E8E9" transform="translate(94,158)"/>
<path d="M0 0 C1.65 0 3.3 0 5 0 C5 0.66 5 1.32 5 2 C3.35666496 3.03789581 1.68756133 4.03567924 0 5 C-0.66 5.66 -1.32 6.32 -2 7 C-1.125 2.25 -1.125 2.25 0 0 Z " fill="#D8E3E7" transform="translate(52,87)"/>
<path d="M0 0 C2.475 0.99 2.475 0.99 5 2 C5 3.65 5 5.3 5 7 C2.47411298 4.63707344 1.11179163 3.33537489 0 0 Z " fill="#31868A" transform="translate(121,55)"/>
<path d="M0 0 C1 2 1 2 0.0625 5.125 C-0.288125 6.07375 -0.63875 7.0225 -1 8 C-1.99 7.67 -2.98 7.34 -4 7 C-2.92598892 4.08482708 -2.22189824 2.22189824 0 0 Z " fill="#18252D" transform="translate(32,57)"/>
<path d="M0 0 C0 0.99 0 1.98 0 3 C-1.98 3.33 -3.96 3.66 -6 4 C-5.67 3.01 -5.34 2.02 -5 1 C-3 0 -3 0 0 0 Z " fill="#11252E" transform="translate(101,18)"/>
<path d="M0 0 C3.26954202 0.56371414 4.82575883 1.49962266 7 4 C2.25 5.125 2.25 5.125 0 4 C0.33 3.34 0.66 2.68 1 2 C0.67 1.34 0.34 0.68 0 0 Z " fill="#E9F2EC" transform="translate(101,11)"/>
</svg>
